G04 #@! TF.GenerationSoftware,KiCad,Pcbnew,6.0.11-2627ca5db0~126~ubuntu20.04.1*
G04 #@! TF.CreationDate,2023-03-27T19:11:57+02:00*
G04 #@! TF.ProjectId,KA12,4b413132-2e6b-4696-9361-645f70636258,rev?*
G04 #@! TF.SameCoordinates,Original*
G04 #@! TF.FileFunction,Copper,L2,Bot*
G04 #@! TF.FilePolarity,Positive*
%FSLAX46Y46*%
G04 Gerber Fmt 4.6, Leading zero omitted, Abs format (unit mm)*
G04 Created by KiCad (PCBNEW 6.0.11-2627ca5db0~126~ubuntu20.04.1) date 2023-03-27 19:11:57*
%MOMM*%
%LPD*%
G01*
G04 APERTURE LIST*
G04 #@! TA.AperFunction,SMDPad,CuDef*
%ADD10O,2.540000X3.810000*%
G04 #@! TD*
G04 #@! TA.AperFunction,SMDPad,CuDef*
%ADD11O,1.778000X3.556000*%
G04 #@! TD*
G04 #@! TA.AperFunction,SMDPad,CuDef*
%ADD12O,1.778000X0.635000*%
G04 #@! TD*
G04 #@! TA.AperFunction,SMDPad,CuDef*
%ADD13O,2.000000X1.651000*%
G04 #@! TD*
G04 #@! TA.AperFunction,SMDPad,CuDef*
%ADD14O,1.651000X2.000000*%
G04 #@! TD*
G04 #@! TA.AperFunction,ViaPad*
%ADD15C,0.900000*%
G04 #@! TD*
G04 #@! TA.AperFunction,Conductor*
%ADD16C,0.304800*%
G04 #@! TD*
G04 #@! TA.AperFunction,Conductor*
%ADD17C,0.300000*%
G04 #@! TD*
G04 APERTURE END LIST*
D10*
X125984000Y-118110000D03*
D11*
X104775000Y-103632000D03*
X135509000Y-103632000D03*
D10*
X114300000Y-118110000D03*
D12*
X109220000Y-106807000D03*
X109220000Y-108077000D03*
X109220000Y-109347000D03*
X109220000Y-110617000D03*
X103378000Y-110617000D03*
X103378000Y-109347000D03*
X103378000Y-108077000D03*
X103378000Y-106807000D03*
D13*
X115138200Y-113919000D03*
X111683800Y-113919000D03*
X118541800Y-113919000D03*
X121996200Y-113919000D03*
D14*
X133731000Y-110693200D03*
X133731000Y-107238800D03*
X127127000Y-107238800D03*
X127127000Y-110693200D03*
D13*
X125399800Y-113919000D03*
X128854200Y-113919000D03*
D14*
X130429000Y-107238800D03*
X130429000Y-110693200D03*
D13*
X115773200Y-110617000D03*
X112318800Y-110617000D03*
X112318800Y-107315000D03*
X115773200Y-107315000D03*
X119684800Y-107315000D03*
X123139200Y-107315000D03*
X119684800Y-110617000D03*
X123139200Y-110617000D03*
D15*
X121412000Y-110617000D03*
X121412000Y-108966000D03*
X107569000Y-107061000D03*
X107569000Y-110617000D03*
X116840000Y-115824000D03*
X105664000Y-108839000D03*
X128905000Y-115951000D03*
X123698000Y-115824000D03*
X113728500Y-109029500D03*
X125095000Y-106807000D03*
X120523000Y-115316000D03*
X117983000Y-110617000D03*
X135128000Y-108966000D03*
X112141000Y-116459000D03*
X123698000Y-113919000D03*
X122682000Y-108966000D03*
X117729000Y-108966000D03*
X116078000Y-108966000D03*
D16*
X121412000Y-110617000D02*
X119634000Y-110617000D01*
X119634000Y-108648500D02*
X119951500Y-108966000D01*
X119951500Y-108966000D02*
X121412000Y-108966000D01*
X119634000Y-107315000D02*
X119634000Y-108648500D01*
X115570000Y-116713000D02*
X117983000Y-116713000D01*
X117983000Y-116713000D02*
X118491000Y-116205000D01*
X118491000Y-116205000D02*
X118491000Y-113919000D01*
X114300000Y-117983000D02*
X115570000Y-116713000D01*
X107823000Y-106807000D02*
X107569000Y-107061000D01*
X109220000Y-106807000D02*
X107823000Y-106807000D01*
X110871000Y-112014000D02*
X111633000Y-112776000D01*
X111633000Y-112776000D02*
X111633000Y-113919000D01*
X108013500Y-108077000D02*
X107569000Y-108521500D01*
X107569000Y-108521500D02*
X107569000Y-110617000D01*
X110744000Y-108077000D02*
X110871000Y-108204000D01*
X110871000Y-108204000D02*
X110871000Y-112014000D01*
X109220000Y-108077000D02*
X108013500Y-108077000D01*
X109220000Y-108077000D02*
X110744000Y-108077000D01*
X124714000Y-110426500D02*
X124714000Y-111379000D01*
D17*
X105156000Y-109347000D02*
X105664000Y-108839000D01*
D16*
X103632000Y-109347000D02*
X104775000Y-109347000D01*
D17*
X104775000Y-109347000D02*
X105156000Y-109347000D01*
D16*
X130073400Y-108966000D02*
X126174500Y-108966000D01*
X124714000Y-111379000D02*
X123825000Y-112268000D01*
X123825000Y-112268000D02*
X117348000Y-112268000D01*
X117348000Y-112268000D02*
X116840000Y-112776000D01*
X130429000Y-110744000D02*
X130429000Y-109321600D01*
X130429000Y-109321600D02*
X130073400Y-108966000D01*
X126174500Y-108966000D02*
X124714000Y-110426500D01*
X116840000Y-112776000D02*
X116840000Y-115824000D01*
X128905000Y-113919000D02*
X128905000Y-115951000D01*
X127127000Y-114935000D02*
X127127000Y-110744000D01*
X123698000Y-115824000D02*
X123952000Y-115570000D01*
X123952000Y-115570000D02*
X126492000Y-115570000D01*
X126492000Y-115570000D02*
X127127000Y-114935000D01*
X112268000Y-110490000D02*
X113728500Y-109029500D01*
X112268000Y-110617000D02*
X112268000Y-110490000D01*
X125095000Y-106807000D02*
X123698000Y-106807000D01*
X123698000Y-106807000D02*
X123190000Y-107315000D01*
X125476000Y-107188000D02*
X125095000Y-106807000D01*
X105029000Y-106807000D02*
X105918000Y-105918000D01*
X105918000Y-105918000D02*
X122936000Y-105918000D01*
X122936000Y-105918000D02*
X123190000Y-106172000D01*
X123190000Y-106172000D02*
X123190000Y-107315000D01*
X127127000Y-107188000D02*
X125476000Y-107188000D01*
X130429000Y-107188000D02*
X127127000Y-107188000D01*
X133731000Y-107188000D02*
X130429000Y-107188000D01*
X103632000Y-106807000D02*
X105029000Y-106807000D01*
X114554000Y-110617000D02*
X113665000Y-111506000D01*
X113665000Y-114554000D02*
X112649000Y-115570000D01*
X112649000Y-115570000D02*
X110871000Y-115570000D01*
X110871000Y-115570000D02*
X110236000Y-114935000D01*
X110236000Y-114935000D02*
X110236000Y-112141000D01*
X110236000Y-112141000D02*
X109728000Y-111633000D01*
X109728000Y-111633000D02*
X106299000Y-111633000D01*
X106299000Y-111633000D02*
X105283000Y-110617000D01*
X105283000Y-110617000D02*
X103632000Y-110617000D01*
X113665000Y-111506000D02*
X113665000Y-114554000D01*
X115824000Y-110617000D02*
X117983000Y-110617000D01*
D17*
X133731000Y-110693200D02*
X133731000Y-109474000D01*
X121983500Y-116522500D02*
X122174000Y-116713000D01*
X121983500Y-115316000D02*
X121996200Y-115303300D01*
X124587000Y-116713000D02*
X125984000Y-118110000D01*
X120523000Y-115316000D02*
X121983500Y-115316000D01*
X122174000Y-116713000D02*
X124587000Y-116713000D01*
X121983500Y-115316000D02*
X121983500Y-116522500D01*
X121996200Y-115303300D02*
X121996200Y-113919000D01*
D16*
X115824000Y-110617000D02*
X114554000Y-110617000D01*
D17*
X133731000Y-109474000D02*
X134239000Y-108966000D01*
X134239000Y-108966000D02*
X135128000Y-108966000D01*
D16*
X113538000Y-115570000D02*
X114935000Y-115570000D01*
X114935000Y-115570000D02*
X115189000Y-115316000D01*
X115189000Y-113919000D02*
X115189000Y-115316000D01*
X112649000Y-116459000D02*
X112141000Y-116459000D01*
X113538000Y-115570000D02*
X112649000Y-116459000D01*
X123698000Y-113919000D02*
X125349000Y-113919000D01*
X122682000Y-108966000D02*
X122682000Y-110109000D01*
X122682000Y-110109000D02*
X123190000Y-110617000D01*
X117729000Y-108966000D02*
X117729000Y-107823000D01*
X117729000Y-107823000D02*
X117221000Y-107315000D01*
X117221000Y-107315000D02*
X115824000Y-107315000D01*
X116078000Y-108966000D02*
X114998500Y-108966000D01*
X114998500Y-108966000D02*
X113347500Y-107315000D01*
X113347500Y-107315000D02*
X112268000Y-107315000D01*
M02*
