G04 #@! TF.GenerationSoftware,KiCad,Pcbnew,6.0.11-2627ca5db0~126~ubuntu20.04.1*
G04 #@! TF.CreationDate,2023-03-27T19:11:57+02:00*
G04 #@! TF.ProjectId,KA12,4b413132-2e6b-4696-9361-645f70636258,rev?*
G04 #@! TF.SameCoordinates,Original*
G04 #@! TF.FileFunction,Copper,L1,Top*
G04 #@! TF.FilePolarity,Positive*
%FSLAX46Y46*%
G04 Gerber Fmt 4.6, Leading zero omitted, Abs format (unit mm)*
G04 Created by KiCad (PCBNEW 6.0.11-2627ca5db0~126~ubuntu20.04.1) date 2023-03-27 19:11:57*
%MOMM*%
%LPD*%
G01*
G04 APERTURE LIST*
G04 #@! TA.AperFunction,SMDPad,CuDef*
%ADD10O,1.778000X2.794000*%
G04 #@! TD*
G04 #@! TA.AperFunction,SMDPad,CuDef*
%ADD11O,1.651000X2.000000*%
G04 #@! TD*
G04 #@! TA.AperFunction,SMDPad,CuDef*
%ADD12O,1.778000X0.635000*%
G04 #@! TD*
G04 #@! TA.AperFunction,SMDPad,CuDef*
%ADD13O,1.778000X3.556000*%
G04 #@! TD*
G04 #@! TA.AperFunction,SMDPad,CuDef*
%ADD14O,0.635000X1.778000*%
G04 #@! TD*
G04 #@! TA.AperFunction,ViaPad*
%ADD15C,0.900000*%
G04 #@! TD*
G04 #@! TA.AperFunction,Conductor*
%ADD16C,0.304800*%
G04 #@! TD*
G04 #@! TA.AperFunction,Conductor*
%ADD17C,0.300000*%
G04 #@! TD*
G04 APERTURE END LIST*
D10*
X122936000Y-118618000D03*
X129032000Y-118618000D03*
X117348000Y-118618000D03*
X111252000Y-118618000D03*
D11*
X136525000Y-107238800D03*
X136525000Y-110693200D03*
D12*
X127254000Y-106807000D03*
X127254000Y-108077000D03*
X127254000Y-109347000D03*
X127254000Y-110617000D03*
X133350000Y-110617000D03*
X133350000Y-109347000D03*
X133350000Y-108077000D03*
X133350000Y-106807000D03*
D13*
X103378000Y-103632000D03*
X106172000Y-103632000D03*
X108966000Y-103632000D03*
X120142000Y-103632000D03*
X125730000Y-103632000D03*
X136906000Y-103632000D03*
D11*
X105664000Y-110566200D03*
X105664000Y-107111800D03*
D14*
X121158000Y-107315000D03*
X119888000Y-107315000D03*
X118618000Y-107315000D03*
X117348000Y-107315000D03*
X116078000Y-107315000D03*
X114808000Y-107315000D03*
X113538000Y-107315000D03*
X112268000Y-107315000D03*
X112268000Y-113411000D03*
X113538000Y-113411000D03*
X114808000Y-113411000D03*
X116078000Y-113411000D03*
X117348000Y-113411000D03*
X118618000Y-113411000D03*
X119888000Y-113411000D03*
X121158000Y-113411000D03*
D15*
X121412000Y-110617000D03*
X121412000Y-108966000D03*
X107569000Y-107061000D03*
X107569000Y-110617000D03*
X116840000Y-115824000D03*
X105664000Y-108839000D03*
X128905000Y-115951000D03*
X123698000Y-115824000D03*
X113728500Y-109029500D03*
X125095000Y-106807000D03*
X120523000Y-115316000D03*
X117983000Y-110617000D03*
X135128000Y-108966000D03*
X112141000Y-116459000D03*
X123698000Y-113919000D03*
X122682000Y-108966000D03*
X117729000Y-108966000D03*
X116078000Y-108966000D03*
D16*
X118618000Y-108966000D02*
X120269000Y-110617000D01*
X120269000Y-110617000D02*
X121412000Y-110617000D01*
X118618000Y-107569000D02*
X118618000Y-108966000D01*
X119888000Y-108648500D02*
X120205500Y-108966000D01*
X120205500Y-108966000D02*
X121412000Y-108966000D01*
X119888000Y-108648500D02*
X119888000Y-107569000D01*
X114173000Y-114935000D02*
X111887000Y-114935000D01*
X105664000Y-107061000D02*
X107569000Y-107061000D01*
X103886000Y-107823000D02*
X104648000Y-107061000D01*
X111887000Y-114935000D02*
X110871000Y-113919000D01*
X103886000Y-111252000D02*
X103886000Y-107823000D01*
X116078000Y-116840000D02*
X114173000Y-114935000D01*
X110349000Y-112000000D02*
X104634000Y-112000000D01*
X104648000Y-107061000D02*
X105664000Y-107061000D01*
X117348000Y-118364000D02*
X117348000Y-117094000D01*
X117348000Y-117094000D02*
X117094000Y-116840000D01*
X104634000Y-112000000D02*
X103886000Y-111252000D01*
X117094000Y-116840000D02*
X116078000Y-116840000D01*
X110871000Y-113919000D02*
X110871000Y-112522000D01*
X110871000Y-112522000D02*
X110349000Y-112000000D01*
X107569000Y-110617000D02*
X105664000Y-110617000D01*
X110109000Y-108839000D02*
X112522000Y-111252000D01*
X112522000Y-111252000D02*
X114427000Y-111252000D01*
X114427000Y-111252000D02*
X114808000Y-111633000D01*
X114808000Y-111633000D02*
X114808000Y-113157000D01*
X116840000Y-115824000D02*
X115951000Y-115824000D01*
X115951000Y-115824000D02*
X114808000Y-114681000D01*
X114808000Y-114681000D02*
X114808000Y-113157000D01*
D17*
X110109000Y-108839000D02*
X105664000Y-108839000D01*
D16*
X128905000Y-115951000D02*
X129032000Y-116078000D01*
X129032000Y-116078000D02*
X129032000Y-118618000D01*
X122936000Y-116586000D02*
X123698000Y-115824000D01*
X122936000Y-118618000D02*
X122936000Y-116586000D01*
X113728500Y-109029500D02*
X114363500Y-109029500D01*
X114363500Y-109029500D02*
X114808000Y-108585000D01*
X114808000Y-108585000D02*
X114808000Y-107569000D01*
X125730000Y-104394000D02*
X126619000Y-105283000D01*
X126619000Y-105283000D02*
X128397000Y-105283000D01*
X128397000Y-105283000D02*
X129921000Y-106807000D01*
X129921000Y-106807000D02*
X133096000Y-106807000D01*
X134493000Y-106807000D02*
X134874000Y-107188000D01*
X134874000Y-107188000D02*
X136525000Y-107188000D01*
X133096000Y-106807000D02*
X134493000Y-106807000D01*
X125730000Y-103632000D02*
X125730000Y-104394000D01*
X121158000Y-112268000D02*
X121285000Y-112141000D01*
X121285000Y-112141000D02*
X121920000Y-112141000D01*
X121920000Y-112141000D02*
X124142500Y-109918500D01*
X124142500Y-109918500D02*
X124142500Y-108458000D01*
X124142500Y-108458000D02*
X125095000Y-107505500D01*
X125095000Y-107505500D02*
X125095000Y-106807000D01*
X121158000Y-113157000D02*
X121158000Y-112268000D01*
X127508000Y-106807000D02*
X125095000Y-106807000D01*
X119888000Y-111506000D02*
X121729500Y-111506000D01*
X121729500Y-111506000D02*
X123571000Y-109664500D01*
X123571000Y-109664500D02*
X123571000Y-105918000D01*
X123571000Y-105918000D02*
X121412000Y-105918000D01*
X120142000Y-104648000D02*
X120142000Y-103632000D01*
X130429000Y-108077000D02*
X130429000Y-109347000D01*
X130429000Y-109347000D02*
X133096000Y-109347000D01*
X128905000Y-108077000D02*
X128905000Y-106680000D01*
X128905000Y-106680000D02*
X128143000Y-105918000D01*
X128143000Y-105918000D02*
X121412000Y-105918000D01*
X121412000Y-105918000D02*
X120142000Y-104648000D01*
X136271000Y-108966000D02*
X136525000Y-109220000D01*
X136525000Y-109220000D02*
X136525000Y-110744000D01*
X117983000Y-110617000D02*
X117983000Y-110871000D01*
X118618000Y-111506000D02*
X119888000Y-111506000D01*
X119888000Y-114427000D02*
X119888000Y-113157000D01*
X127508000Y-108077000D02*
X133096000Y-108077000D01*
X117983000Y-110871000D02*
X118618000Y-111506000D01*
X127508000Y-108077000D02*
X130429000Y-108077000D01*
D17*
X119888000Y-114681000D02*
X120523000Y-115316000D01*
D16*
X127508000Y-109347000D02*
X130429000Y-109347000D01*
D17*
X136271000Y-108966000D02*
X135128000Y-108966000D01*
D16*
X119888000Y-113157000D02*
X119888000Y-111506000D01*
D17*
X119888000Y-114427000D02*
X119888000Y-114681000D01*
X133096000Y-109347000D02*
X134747000Y-109347000D01*
X134747000Y-109347000D02*
X135128000Y-108966000D01*
D16*
X127508000Y-108077000D02*
X128905000Y-108077000D01*
X106172000Y-104521000D02*
X107696000Y-106045000D01*
X107696000Y-106045000D02*
X109601000Y-106045000D01*
X109601000Y-106045000D02*
X110617000Y-107061000D01*
X110617000Y-107061000D02*
X110617000Y-108458000D01*
X110617000Y-108458000D02*
X112776000Y-110617000D01*
X112776000Y-110617000D02*
X114681000Y-110617000D01*
X117348000Y-112268000D02*
X116840000Y-111760000D01*
X116840000Y-111760000D02*
X115824000Y-111760000D01*
X115824000Y-111760000D02*
X114681000Y-110617000D01*
X117348000Y-113157000D02*
X117348000Y-112268000D01*
X106172000Y-104521000D02*
X106172000Y-103632000D01*
X112141000Y-116459000D02*
X111252000Y-117348000D01*
X111252000Y-117348000D02*
X111252000Y-118618000D01*
X108966000Y-104521000D02*
X111252000Y-106807000D01*
X111252000Y-106807000D02*
X111252000Y-108204000D01*
X111252000Y-108204000D02*
X113030000Y-109982000D01*
X113030000Y-109982000D02*
X114935000Y-109982000D01*
X118618000Y-113157000D02*
X118618000Y-112268000D01*
X116078000Y-111125000D02*
X117094000Y-111125000D01*
X117094000Y-111125000D02*
X117983000Y-112014000D01*
X117983000Y-112014000D02*
X118364000Y-112014000D01*
X118364000Y-112014000D02*
X118618000Y-112268000D01*
X114935000Y-109982000D02*
X116078000Y-111125000D01*
X108966000Y-104521000D02*
X108966000Y-103632000D01*
X116459000Y-114935000D02*
X118872000Y-114935000D01*
X123126500Y-113919000D02*
X123698000Y-113919000D01*
X116078000Y-113157000D02*
X116078000Y-114554000D01*
X116078000Y-114554000D02*
X116459000Y-114935000D01*
X120142000Y-116205000D02*
X120840500Y-116205000D01*
X120840500Y-116205000D02*
X123126500Y-113919000D01*
X118872000Y-114935000D02*
X120142000Y-116205000D01*
X122237500Y-107569000D02*
X122682000Y-108013500D01*
X122682000Y-108013500D02*
X122682000Y-108966000D01*
X121158000Y-107569000D02*
X122237500Y-107569000D01*
X117348000Y-108585000D02*
X117348000Y-107569000D01*
X117729000Y-108966000D02*
X117348000Y-108585000D01*
X116078000Y-107569000D02*
X116078000Y-108966000D01*
G04 #@! TA.AperFunction,Conductor*
G36*
X125439823Y-107952909D02*
G01*
X125451136Y-107955159D01*
X125512306Y-107967327D01*
X125566882Y-107989934D01*
X125615686Y-108022544D01*
X125657456Y-108064314D01*
X125690066Y-108113118D01*
X125712673Y-108167694D01*
X125727091Y-108240175D01*
X125730000Y-108269713D01*
X125730000Y-111506000D01*
X128905000Y-111506000D01*
X128905000Y-108269713D01*
X128907909Y-108240175D01*
X128922327Y-108167694D01*
X128944934Y-108113118D01*
X128977544Y-108064314D01*
X129019314Y-108022544D01*
X129068118Y-107989934D01*
X129122694Y-107967327D01*
X129183864Y-107955159D01*
X129195177Y-107952909D01*
X129224713Y-107950000D01*
X131379287Y-107950000D01*
X131408823Y-107952909D01*
X131420136Y-107955159D01*
X131481306Y-107967327D01*
X131535882Y-107989934D01*
X131584686Y-108022544D01*
X131626456Y-108064314D01*
X131659066Y-108113118D01*
X131681673Y-108167694D01*
X131696091Y-108240175D01*
X131699000Y-108269713D01*
X131699000Y-111999835D01*
X131696091Y-112029373D01*
X131681673Y-112101854D01*
X131659067Y-112156429D01*
X131618010Y-112217876D01*
X131599181Y-112240819D01*
X131417819Y-112422181D01*
X131394876Y-112441010D01*
X131333429Y-112482067D01*
X131278854Y-112504673D01*
X131193216Y-112521708D01*
X131191248Y-112522000D01*
X131064000Y-112522000D01*
X130683000Y-112903000D01*
X130683000Y-114412835D01*
X130680091Y-114442373D01*
X130665673Y-114514854D01*
X130643067Y-114569429D01*
X130602010Y-114630876D01*
X130583181Y-114653819D01*
X130401819Y-114835181D01*
X130378876Y-114854010D01*
X130317429Y-114895067D01*
X130262854Y-114917673D01*
X130222241Y-114925752D01*
X130190371Y-114932091D01*
X130160835Y-114935000D01*
X124906713Y-114935000D01*
X124877177Y-114932091D01*
X124845307Y-114925752D01*
X124804694Y-114917673D01*
X124750118Y-114895066D01*
X124701314Y-114862456D01*
X124659544Y-114820686D01*
X124626934Y-114771882D01*
X124604327Y-114717306D01*
X124589909Y-114644825D01*
X124587000Y-114615287D01*
X124587000Y-113411000D01*
X123049199Y-111873199D01*
X123010014Y-111805328D01*
X123010014Y-111726958D01*
X123049199Y-111659087D01*
X124440590Y-110267696D01*
X124453915Y-110255855D01*
X124471032Y-110242361D01*
X124479918Y-110235356D01*
X124486350Y-110226049D01*
X124486355Y-110226044D01*
X124513613Y-110186604D01*
X124516380Y-110182732D01*
X124544844Y-110144196D01*
X124544845Y-110144195D01*
X124551569Y-110135091D01*
X124554000Y-110128168D01*
X124558170Y-110122135D01*
X124575640Y-110066898D01*
X124576033Y-110065654D01*
X124577538Y-110061143D01*
X124587304Y-110033333D01*
X124597172Y-110005233D01*
X124597460Y-109997900D01*
X124599671Y-109990909D01*
X124600200Y-109984188D01*
X124600200Y-109931125D01*
X124600317Y-109925181D01*
X124602131Y-109879016D01*
X124602131Y-109879014D01*
X124602575Y-109867707D01*
X124600586Y-109860204D01*
X124600200Y-109853195D01*
X124600200Y-108710297D01*
X124620484Y-108634597D01*
X124644544Y-108603241D01*
X125253441Y-107994344D01*
X125321312Y-107955159D01*
X125360497Y-107950000D01*
X125410287Y-107950000D01*
X125439823Y-107952909D01*
G37*
G04 #@! TD.AperFunction*
M02*
