G04 #@! TF.GenerationSoftware,KiCad,Pcbnew,6.0.11-2627ca5db0~126~ubuntu20.04.1*
G04 #@! TF.CreationDate,2023-03-27T19:11:57+02:00*
G04 #@! TF.ProjectId,KA12,4b413132-2e6b-4696-9361-645f70636258,rev?*
G04 #@! TF.SameCoordinates,Original*
G04 #@! TF.FileFunction,Legend,Top*
G04 #@! TF.FilePolarity,Positive*
%FSLAX46Y46*%
G04 Gerber Fmt 4.6, Leading zero omitted, Abs format (unit mm)*
G04 Created by KiCad (PCBNEW 6.0.11-2627ca5db0~126~ubuntu20.04.1) date 2023-03-27 19:11:57*
%MOMM*%
%LPD*%
G01*
G04 APERTURE LIST*
%ADD10C,0.152400*%
%ADD11C,0.150000*%
%ADD12C,0.200000*%
%ADD13C,0.254000*%
G04 APERTURE END LIST*
D10*
X116979095Y-110919380D02*
X116979095Y-110096904D01*
X116930714Y-110000142D01*
X116882333Y-109951761D01*
X116785571Y-109903380D01*
X116592047Y-109903380D01*
X116495285Y-109951761D01*
X116446904Y-110000142D01*
X116398523Y-110096904D01*
X116398523Y-110919380D01*
X115963095Y-110822619D02*
X115914714Y-110871000D01*
X115817952Y-110919380D01*
X115576047Y-110919380D01*
X115479285Y-110871000D01*
X115430904Y-110822619D01*
X115382523Y-110725857D01*
X115382523Y-110629095D01*
X115430904Y-110483952D01*
X116011476Y-109903380D01*
X115382523Y-109903380D01*
X130731380Y-108191904D02*
X129908904Y-108191904D01*
X129812142Y-108240285D01*
X129763761Y-108288666D01*
X129715380Y-108385428D01*
X129715380Y-108578952D01*
X129763761Y-108675714D01*
X129812142Y-108724095D01*
X129908904Y-108772476D01*
X130731380Y-108772476D01*
X129715380Y-109788476D02*
X129715380Y-109207904D01*
X129715380Y-109498190D02*
X130731380Y-109498190D01*
X130586238Y-109401428D01*
X130489476Y-109304666D01*
X130441095Y-109207904D01*
X125113142Y-114671323D02*
X125113142Y-113401323D01*
X125766285Y-114671323D02*
X125276428Y-113945609D01*
X125766285Y-113401323D02*
X125113142Y-114127038D01*
X126201714Y-114308466D02*
X126746000Y-114308466D01*
X126092857Y-114671323D02*
X126473857Y-113401323D01*
X126854857Y-114671323D01*
X127834571Y-114671323D02*
X127181428Y-114671323D01*
X127508000Y-114671323D02*
X127508000Y-113401323D01*
X127399142Y-113582752D01*
X127290285Y-113703704D01*
X127181428Y-113764180D01*
X128270000Y-113522276D02*
X128324428Y-113461800D01*
X128433285Y-113401323D01*
X128705428Y-113401323D01*
X128814285Y-113461800D01*
X128868714Y-113522276D01*
X128923142Y-113643228D01*
X128923142Y-113764180D01*
X128868714Y-113945609D01*
X128215571Y-114671323D01*
X128923142Y-114671323D01*
X129413000Y-114006085D02*
X129794000Y-114006085D01*
X129957285Y-114671323D02*
X129413000Y-114671323D01*
X129413000Y-113401323D01*
X129957285Y-113401323D01*
X124968000Y-116791619D02*
X125161523Y-116791619D01*
X125258285Y-116840000D01*
X125355047Y-116936761D01*
X125403428Y-117130285D01*
X125403428Y-117468952D01*
X125355047Y-117662476D01*
X125258285Y-117759238D01*
X125161523Y-117807619D01*
X124968000Y-117807619D01*
X124871238Y-117759238D01*
X124774476Y-117662476D01*
X124726095Y-117468952D01*
X124726095Y-117130285D01*
X124774476Y-116936761D01*
X124871238Y-116840000D01*
X124968000Y-116791619D01*
X125838857Y-116791619D02*
X125838857Y-117614095D01*
X125887238Y-117710857D01*
X125935619Y-117759238D01*
X126032380Y-117807619D01*
X126225904Y-117807619D01*
X126322666Y-117759238D01*
X126371047Y-117710857D01*
X126419428Y-117614095D01*
X126419428Y-116791619D01*
X126758095Y-116791619D02*
X127338666Y-116791619D01*
X127048380Y-117807619D02*
X127048380Y-116791619D01*
X122240523Y-115987285D02*
X122240523Y-116664619D01*
X121998619Y-115600238D02*
X121756714Y-116325952D01*
X122385666Y-116325952D01*
X130289904Y-115648619D02*
X129806095Y-115648619D01*
X129757714Y-116132428D01*
X129806095Y-116084047D01*
X129902857Y-116035666D01*
X130144761Y-116035666D01*
X130241523Y-116084047D01*
X130289904Y-116132428D01*
X130338285Y-116229190D01*
X130338285Y-116471095D01*
X130289904Y-116567857D01*
X130241523Y-116616238D01*
X130144761Y-116664619D01*
X129902857Y-116664619D01*
X129806095Y-116616238D01*
X129757714Y-116567857D01*
D11*
X118300476Y-115990714D02*
X118300476Y-116657380D01*
X118062380Y-115609761D02*
X117824285Y-116324047D01*
X118443333Y-116324047D01*
X110855095Y-115657380D02*
X110378904Y-115657380D01*
X110331285Y-116133571D01*
X110378904Y-116085952D01*
X110474142Y-116038333D01*
X110712238Y-116038333D01*
X110807476Y-116085952D01*
X110855095Y-116133571D01*
X110902714Y-116228809D01*
X110902714Y-116466904D01*
X110855095Y-116562142D01*
X110807476Y-116609761D01*
X110712238Y-116657380D01*
X110474142Y-116657380D01*
X110378904Y-116609761D01*
X110331285Y-116562142D01*
D12*
X133150000Y-105755214D02*
X133092857Y-105826642D01*
X132921428Y-105898071D01*
X132807142Y-105898071D01*
X132635714Y-105826642D01*
X132521428Y-105683785D01*
X132464285Y-105540928D01*
X132407142Y-105255214D01*
X132407142Y-105040928D01*
X132464285Y-104755214D01*
X132521428Y-104612357D01*
X132635714Y-104469500D01*
X132807142Y-104398071D01*
X132921428Y-104398071D01*
X133092857Y-104469500D01*
X133150000Y-104540928D01*
X134292857Y-105898071D02*
X133607142Y-105898071D01*
X133950000Y-105898071D02*
X133950000Y-104398071D01*
X133835714Y-104612357D01*
X133721428Y-104755214D01*
X133607142Y-104826642D01*
X103612071Y-107692714D02*
X102112071Y-107692714D01*
X102112071Y-107407000D01*
X102183500Y-107235571D01*
X102326357Y-107121285D01*
X102469214Y-107064142D01*
X102754928Y-107007000D01*
X102969214Y-107007000D01*
X103254928Y-107064142D01*
X103397785Y-107121285D01*
X103540642Y-107235571D01*
X103612071Y-107407000D01*
X103612071Y-107692714D01*
X103612071Y-105864142D02*
X103612071Y-106549857D01*
X103612071Y-106207000D02*
X102112071Y-106207000D01*
X102326357Y-106321285D01*
X102469214Y-106435571D01*
X102540642Y-106549857D01*
D10*
X113767809Y-117680619D02*
X113767809Y-116664619D01*
X114251619Y-117680619D02*
X114251619Y-116664619D01*
X114832190Y-117680619D01*
X114832190Y-116664619D01*
D12*
X138049000Y-105791000D02*
X135001000Y-105791000D01*
X138049000Y-112141000D02*
X135001000Y-112141000D01*
X135001000Y-112141000D02*
X135001000Y-109855000D01*
X138049000Y-112141000D02*
X138049000Y-109855000D01*
X135001000Y-105791000D02*
X135001000Y-108077000D01*
X138049000Y-105791000D02*
X138049000Y-108077000D01*
D13*
X131826000Y-106299000D02*
X131826000Y-111125000D01*
X131826000Y-111125000D02*
X128778000Y-111125000D01*
X128778000Y-106299000D02*
X128778000Y-111125000D01*
X128778000Y-106299000D02*
X131826000Y-106299000D01*
X129540000Y-106299000D02*
G75*
G03*
X131064000Y-106299000I762000J0D01*
G01*
D12*
X104140000Y-112014000D02*
X104140000Y-109728000D01*
X107188000Y-112014000D02*
X107188000Y-109728000D01*
X104140000Y-112014000D02*
X107188000Y-112014000D01*
X104140000Y-105664000D02*
X107188000Y-105664000D01*
X104140000Y-105664000D02*
X104140000Y-107950000D01*
X107188000Y-105664000D02*
X107188000Y-107950000D01*
D13*
X121666000Y-111887000D02*
X111760000Y-111887000D01*
X121666000Y-108839000D02*
X121666000Y-111887000D01*
X121666000Y-108839000D02*
X111760000Y-108839000D01*
X111760000Y-111887000D02*
X111760000Y-108839000D01*
X121666000Y-109601000D02*
G75*
G03*
X121666000Y-111125000I0J-762000D01*
G01*
M02*
